<svg width="63" height="68" viewBox="0 0 63 68" fill="none" xmlns="http://www.w3.org/2000/svg">
<mask id="mask0_7_77" style="mask-type:alpha" maskUnits="userSpaceOnUse" x="0" y="0" width="63" height="68">
<path fill-rule="evenodd" clip-rule="evenodd" d="M47.3235 0C56.3028 0 62.1273 6.30511 62.1273 16.0255V51.229C62.1273 60.9494 56.3028 67.2545 47.3235 67.2545H14.8038C5.82443 67.2545 0 60.9494 0 51.229V16.0255C0 6.30511 5.82443 0 14.8038 0H47.3235Z" fill="white"/>
</mask>
<g mask="url(#mask0_7_77)">
<path fill-rule="evenodd" clip-rule="evenodd" d="M60.8257 7.27521L49.9234 18.8604C49.9234 18.8604 47.5843 21.2356 48.8885 22.4904C48.8885 22.4904 50.7212 25.1801 54.659 23.2302C54.659 23.2302 57.5966 22.4887 56.7501 28.5288C55.9036 34.5693 48.4929 35.4476 48.4929 35.4476C48.4929 35.4476 44.625 35.887 44.8414 41.8889C44.8414 41.8889 46.0327 53.7117 38.2916 58.7299C38.2916 58.7299 29.1077 65.8791 19.8802 60.1978C10.6522 54.5165 8.1159 48.4092 8.1159 48.4092C8.1159 48.4092 5.44805 44.0068 5.18557 36.1952C4.92306 28.3836 10.9587 23.3653 10.9587 23.3653C10.9587 23.3653 15.4195 18.8206 23.16 19.2465C23.16 19.2465 28.7142 20.0984 29.8076 17.0686C29.8076 17.0686 31.513 8.35745 36.7612 6.08536C36.7612 6.08536 42.1404 4.57044 40.916 10.0618C39.6916 15.5537 42.2279 15.2695 42.2279 15.2695C42.2279 15.2695 43.1024 15.6013 44.0648 14.4176C45.0267 13.234 56.31 1.25647 56.31 1.25647L60.8257 7.27521ZM23.6893 34.2318C23.2621 33.7692 23.2621 33.0193 23.6893 32.5568C24.1166 32.0942 24.8093 32.0942 25.2366 32.5568L31.7797 39.6398C32.207 40.1024 32.207 40.8523 31.7797 41.3148C31.3524 41.7773 30.6597 41.7773 30.2324 41.3148L23.6893 34.2318ZM11.9143 29.4253C11.8025 28.9072 11.8755 28.1273 12.6897 27.9889C13.9374 27.7771 13.6884 29.1715 13.6884 29.1715C14.13 29.3581 16.6327 28.2041 16.6327 28.2041C19.4025 27.2941 20.1705 25.2707 20.2518 25.034L20.4102 28.4374C18.8199 28.152 16.1845 29.3938 14.5489 30.2128C12.9097 31.0339 12.1518 29.895 12.1518 29.895C12.1518 29.895 11.9737 29.7007 11.9143 29.4253ZM20.4178 28.4388C20.4133 28.452 20.4112 28.4589 20.4112 28.4589L20.4102 28.4374L20.4178 28.4388ZM20.4187 28.4361L20.4189 28.439L20.4178 28.4388L20.4187 28.4361ZM20.2604 25.0327C21.8507 25.318 24.4861 24.0763 26.1217 23.2573C27.7609 22.4362 28.5188 23.5751 28.5188 23.5751C28.5188 23.5751 28.6969 23.7693 28.7563 24.0448C28.8681 24.5628 28.7951 25.3429 27.9809 25.4812C26.7332 25.693 26.9822 24.2986 26.9822 24.2986C26.5406 24.112 24.0379 25.266 24.0379 25.266C21.2681 26.1759 20.5 28.1994 20.4187 28.4361L20.2604 25.0327ZM20.2528 25.0313C20.2573 25.0181 20.2594 25.0112 20.2594 25.0112L20.2604 25.0327L20.2528 25.0313ZM20.2528 25.0313L20.2517 25.0311L20.2518 25.034L20.2528 25.0313ZM28.7369 28.6527C28.7369 28.6527 36.5175 36.898 38.7074 39.7961C38.7074 39.7961 39.455 40.6676 38.9635 41.6616C37.9518 44.3247 36.1846 44.9957 35.9692 45.0774C36.1492 46.8116 34.8657 49.5955 34.0246 51.3209C33.1814 53.0498 34.1923 53.9288 34.1923 53.9288C34.1923 53.9288 34.3622 54.1315 34.6132 54.2102C35.0852 54.3581 35.8086 54.32 35.9788 53.4471C36.2395 52.1093 34.9402 52.3055 34.9402 52.3055C34.7911 51.8184 35.9866 49.1732 35.9866 49.1732C36.9711 46.2266 38.8779 45.5022 39.1021 45.4176C39.0019 44.4514 39.3558 43.1595 39.8344 41.9063C39.8951 41.6019 40.4337 41.5189 40.8933 41.6019C40.8933 41.6019 41.6983 41.9135 42.6763 40.5123C42.6763 40.5123 44.2005 38.4572 44.8912 32.6968C44.8912 32.6968 44.8622 30.2375 47.2209 27.9335C47.2209 27.9335 49.6366 25.6603 47.8246 23.6365L40.6018 15.8299L36.8856 19.8393L42.36 25.8475L38.0458 30.5486L32.5214 24.5754L28.7369 28.6527ZM29.8826 28.5317L32.4452 25.7576L38.3934 32.1967L35.8308 34.9709L29.8826 28.5317ZM40.5206 16.9854L37.958 19.7595L43.9062 26.1986L46.4688 23.4245L40.5206 16.9854Z" fill="white"/>
</g>
</svg>
