<svg width="64" height="67" viewBox="0 0 64 67" fill="none" xmlns="http://www.w3.org/2000/svg">
<path fill-rule="evenodd" clip-rule="evenodd" d="M24.9909 25.7974L32.1679 4.95068L39.2491 25.8333H59.8033L43.418 38.4455L50.5598 60.6679L31.8226 47.2068L13.6626 60.7894L20.6193 38.4455L4.15561 25.8301L24.9909 25.7974ZM25.5947 31.0627C25.5947 30.3124 26.184 29.7041 26.9079 29.7041H35.5374C36.2627 29.7041 36.8507 30.3123 36.8507 31.0627V38.2469C36.8507 38.9972 36.2613 39.6055 35.5374 39.6055H26.9079C26.1826 39.6055 25.5947 38.9973 25.5947 38.2469V31.0627ZM37.3388 33.2186L40.4092 30.834V38.7331L37.3388 36.0814V33.2186ZM24.2052 31.3903H24.9535V34.0363H24.2052C23.7919 34.0363 23.4569 33.7826 23.4569 33.4687V31.958C23.4569 31.6445 23.789 31.3903 24.2052 31.3903Z" fill="white"/>
</svg>
