<svg width="777" height="92" viewBox="0 0 777 92" fill="none" xmlns="http://www.w3.org/2000/svg">
<path d="M29.8545 65.16C32.6605 65.758 34.9145 67.161 36.6165 69.369C38.3185 71.531 39.1695 74.015 39.1695 76.821C39.1695 80.869 37.7435 84.089 34.8915 86.481C32.0855 88.827 28.1525 90 23.0925 90H0.529465V41.562H22.3335C27.2555 41.562 31.0965 42.689 33.8565 44.943C36.6625 47.197 38.0655 50.256 38.0655 54.12C38.0655 56.972 37.3065 59.341 35.7885 61.227C34.3165 63.113 32.3385 64.424 29.8545 65.16ZM12.3285 61.158H20.0565C21.9885 61.158 23.4605 60.744 24.4725 59.916C25.5305 59.042 26.0595 57.777 26.0595 56.121C26.0595 54.465 25.5305 53.2 24.4725 52.326C23.4605 51.452 21.9885 51.015 20.0565 51.015H12.3285V61.158ZM21.0225 80.478C23.0005 80.478 24.5185 80.041 25.5765 79.167C26.6805 78.247 27.2325 76.936 27.2325 75.234C27.2325 73.532 26.6575 72.198 25.5075 71.232C24.4035 70.266 22.8625 69.783 20.8845 69.783H12.3285V80.478H21.0225ZM43.6669 70.68C43.6669 66.724 44.4029 63.251 45.8749 60.261C47.3929 57.271 49.4399 54.971 52.0159 53.361C54.5919 51.751 57.4669 50.946 60.6409 50.946C63.3549 50.946 65.7239 51.498 67.7479 52.602C69.8179 53.706 71.4049 55.155 72.5089 56.949V51.498H84.3079V90H72.5089V84.549C71.3589 86.343 69.7489 87.792 67.6789 88.896C65.6549 90 63.2859 90.552 60.5719 90.552C57.4439 90.552 54.5919 89.747 52.0159 88.137C49.4399 86.481 47.3929 84.158 45.8749 81.168C44.4029 78.132 43.6669 74.636 43.6669 70.68ZM72.5089 70.749C72.5089 67.805 71.6809 65.482 70.0249 63.78C68.4149 62.078 66.4369 61.227 64.0909 61.227C61.7449 61.227 59.7439 62.078 58.0879 63.78C56.4779 65.436 55.6729 67.736 55.6729 70.68C55.6729 73.624 56.4779 75.97 58.0879 77.718C59.7439 79.42 61.7449 80.271 64.0909 80.271C66.4369 80.271 68.4149 79.42 70.0249 77.718C71.6809 76.016 72.5089 73.693 72.5089 70.749ZM90.4979 70.749C90.4979 66.747 91.3029 63.251 92.9129 60.261C94.5689 57.271 96.8459 54.971 99.7439 53.361C102.688 51.751 106.046 50.946 109.818 50.946C114.648 50.946 118.673 52.211 121.893 54.741C125.159 57.271 127.298 60.836 128.31 65.436H115.752C114.694 62.492 112.647 61.02 109.611 61.02C107.449 61.02 105.724 61.871 104.436 63.573C103.148 65.229 102.504 67.621 102.504 70.749C102.504 73.877 103.148 76.292 104.436 77.994C105.724 79.65 107.449 80.478 109.611 80.478C112.647 80.478 114.694 79.006 115.752 76.062H128.31C127.298 80.57 125.159 84.112 121.893 86.688C118.627 89.264 114.602 90.552 109.818 90.552C106.046 90.552 102.688 89.747 99.7439 88.137C96.8459 86.527 94.5689 84.227 92.9129 81.237C91.3029 78.247 90.4979 74.751 90.4979 70.749ZM158.15 90L146.42 73.854V90H134.621V38.94H146.42V67.161L158.081 51.498H172.64L156.632 70.818L172.778 90H158.15ZM211.217 61.296H204.869V90H193.07V61.296H188.792V51.498H193.07V50.394C193.07 45.656 194.427 42.068 197.141 39.63C199.855 37.146 203.834 35.904 209.078 35.904C209.952 35.904 210.596 35.927 211.01 35.973V45.978C208.756 45.84 207.169 46.162 206.249 46.944C205.329 47.726 204.869 49.129 204.869 51.153V51.498H211.217V61.296ZM234.287 90.552C230.515 90.552 227.111 89.747 224.075 88.137C221.085 86.527 218.716 84.227 216.968 81.237C215.266 78.247 214.415 74.751 214.415 70.749C214.415 66.793 215.289 63.32 217.037 60.33C218.785 57.294 221.177 54.971 224.213 53.361C227.249 51.751 230.653 50.946 234.425 50.946C238.197 50.946 241.601 51.751 244.637 53.361C247.673 54.971 250.065 57.294 251.813 60.33C253.561 63.32 254.435 66.793 254.435 70.749C254.435 74.705 253.538 78.201 251.744 81.237C249.996 84.227 247.581 86.527 244.499 88.137C241.463 89.747 238.059 90.552 234.287 90.552ZM234.287 80.34C236.541 80.34 238.45 79.512 240.014 77.856C241.624 76.2 242.429 73.831 242.429 70.749C242.429 67.667 241.647 65.298 240.083 63.642C238.565 61.986 236.679 61.158 234.425 61.158C232.125 61.158 230.216 61.986 228.698 63.642C227.18 65.252 226.421 67.621 226.421 70.749C226.421 73.831 227.157 76.2 228.629 77.856C230.147 79.512 232.033 80.34 234.287 80.34ZM272.494 57.915C273.874 55.799 275.599 54.143 277.669 52.947C279.739 51.705 282.039 51.084 284.569 51.084V63.573H281.326C278.382 63.573 276.174 64.217 274.702 65.505C273.23 66.747 272.494 68.955 272.494 72.129V90H260.695V51.498H272.494V57.915ZM353.958 51.084C358.742 51.084 362.537 52.533 365.343 55.431C368.195 58.329 369.621 62.354 369.621 67.506V90H357.891V69.093C357.891 66.609 357.224 64.7 355.89 63.366C354.602 61.986 352.808 61.296 350.508 61.296C348.208 61.296 346.391 61.986 345.057 63.366C343.769 64.7 343.125 66.609 343.125 69.093V90H331.395V69.093C331.395 66.609 330.728 64.7 329.394 63.366C328.106 61.986 326.312 61.296 324.012 61.296C321.712 61.296 319.895 61.986 318.561 63.366C317.273 64.7 316.629 66.609 316.629 69.093V90H304.83V51.498H316.629V56.328C317.825 54.718 319.389 53.453 321.321 52.533C323.253 51.567 325.438 51.084 327.876 51.084C330.774 51.084 333.35 51.705 335.604 52.947C337.904 54.189 339.698 55.96 340.986 58.26C342.32 56.144 344.137 54.419 346.437 53.085C348.737 51.751 351.244 51.084 353.958 51.084ZM395.399 90.552C391.627 90.552 388.223 89.747 385.187 88.137C382.197 86.527 379.828 84.227 378.08 81.237C376.378 78.247 375.527 74.751 375.527 70.749C375.527 66.793 376.401 63.32 378.149 60.33C379.897 57.294 382.289 54.971 385.325 53.361C388.361 51.751 391.765 50.946 395.537 50.946C399.309 50.946 402.713 51.751 405.749 53.361C408.785 54.971 411.177 57.294 412.925 60.33C414.673 63.32 415.547 66.793 415.547 70.749C415.547 74.705 414.65 78.201 412.856 81.237C411.108 84.227 408.693 86.527 405.611 88.137C402.575 89.747 399.171 90.552 395.399 90.552ZM395.399 80.34C397.653 80.34 399.562 79.512 401.126 77.856C402.736 76.2 403.541 73.831 403.541 70.749C403.541 67.667 402.759 65.298 401.195 63.642C399.677 61.986 397.791 61.158 395.537 61.158C393.237 61.158 391.328 61.986 389.81 63.642C388.292 65.252 387.533 67.621 387.533 70.749C387.533 73.831 388.269 76.2 389.741 77.856C391.259 79.512 393.145 80.34 395.399 80.34ZM433.606 57.915C434.986 55.799 436.711 54.143 438.781 52.947C440.851 51.705 443.151 51.084 445.681 51.084V63.573H442.438C439.494 63.573 437.286 64.217 435.814 65.505C434.342 66.747 433.606 68.955 433.606 72.129V90H421.807V51.498H433.606V57.915ZM487.614 70.128C487.614 71.232 487.545 72.382 487.407 73.578H460.704C460.888 75.97 461.647 77.81 462.981 79.098C464.361 80.34 466.04 80.961 468.018 80.961C470.962 80.961 473.009 79.719 474.159 77.235H486.717C486.073 79.765 484.9 82.042 483.198 84.066C481.542 86.09 479.449 87.677 476.919 88.827C474.389 89.977 471.56 90.552 468.432 90.552C464.66 90.552 461.302 89.747 458.358 88.137C455.414 86.527 453.114 84.227 451.458 81.237C449.802 78.247 448.974 74.751 448.974 70.749C448.974 66.747 449.779 63.251 451.389 60.261C453.045 57.271 455.345 54.971 458.289 53.361C461.233 51.751 464.614 50.946 468.432 50.946C472.158 50.946 475.47 51.728 478.368 53.292C481.266 54.856 483.52 57.087 485.13 59.985C486.786 62.883 487.614 66.264 487.614 70.128ZM475.539 67.023C475.539 64.999 474.849 63.389 473.469 62.193C472.089 60.997 470.364 60.399 468.294 60.399C466.316 60.399 464.637 60.974 463.257 62.124C461.923 63.274 461.095 64.907 460.773 67.023H475.539Z" fill="white"/>
<path d="M569.556 0.143997V17.68H532.948V36.624H560.34V53.648H532.948V90H511.06V0.143997H569.556ZM651.588 18.576V90H629.7V80.272C627.481 83.4293 624.452 85.9893 620.612 87.952C616.857 89.8293 612.676 90.768 608.068 90.768C602.606 90.768 597.785 89.5733 593.604 87.184C589.422 84.7093 586.18 81.168 583.876 76.56C581.572 71.952 580.42 66.5333 580.42 60.304V18.576H602.18V57.36C602.18 62.1387 603.417 65.8507 605.892 68.496C608.366 71.1413 611.694 72.464 615.876 72.464C620.142 72.464 623.513 71.1413 625.988 68.496C628.462 65.8507 629.7 62.1387 629.7 57.36V18.576H651.588ZM710.83 17.808C719.192 17.808 725.848 20.5387 730.798 26C735.832 31.376 738.35 38.8 738.35 48.272V90H716.59V51.216C716.59 46.4373 715.352 42.7253 712.878 40.08C710.403 37.4347 707.075 36.112 702.894 36.112C698.712 36.112 695.384 37.4347 692.91 40.08C690.435 42.7253 689.198 46.4373 689.198 51.216V90H667.31V18.576H689.198V28.048C691.416 24.8907 694.403 22.416 698.158 20.624C701.912 18.7467 706.136 17.808 710.83 17.808ZM763.8 91.024C759.96 91.024 756.802 89.9147 754.328 87.696C751.938 85.392 750.744 82.576 750.744 79.248C750.744 75.8347 751.938 72.976 754.328 70.672C756.802 68.368 759.96 67.216 763.8 67.216C767.554 67.216 770.626 68.368 773.016 70.672C775.49 72.976 776.728 75.8347 776.728 79.248C776.728 82.576 775.49 85.392 773.016 87.696C770.626 89.9147 767.554 91.024 763.8 91.024Z" fill="url(#paint0_linear_9_173)"/>
<defs>
<linearGradient id="paint0_linear_9_173" x1="389" y1="-65" x2="389" y2="156" gradientUnits="userSpaceOnUse">
<stop stop-color="#BC3A80"/>
<stop offset="1" stop-color="#17628A"/>
</linearGradient>
</defs>
</svg>
