<svg width="60" height="60" viewBox="0 0 60 60" fill="none" xmlns="http://www.w3.org/2000/svg">
<circle cx="30" cy="30" r="28.5" stroke="url(#paint0_linear_4_40)" stroke-width="3"/>
<mask id="mask0_4_40" style="mask-type:alpha" maskUnits="userSpaceOnUse" x="10" y="10" width="40" height="40">
<path fill-rule="evenodd" clip-rule="evenodd" d="M49.9985 29.9985C49.9985 29.9985 50.2357 20.8085 44.7135 15.2864C39.1915 9.76439 30.0015 10.0015 30.0015 10.0015C30.0015 10.0015 30.0002 10.0488 30 10.1387C30 10.1007 29.9996 10.0704 29.9994 10.0479C29.9991 10.0173 29.9985 10.0015 29.9985 10.0015C29.9985 10.0015 20.8085 9.76439 15.2864 15.2864C9.76439 20.8085 10.0015 29.9985 10.0015 29.9985C10.0015 29.9985 19.1916 30.2356 24.7135 24.7135C29.7609 19.6663 29.9969 11.5546 30 10.1971C30.0033 11.5546 30.2393 19.6663 35.2865 24.7135C40.8085 30.2356 49.9985 29.9985 49.9985 29.9985ZM15.2864 44.7135C9.76439 39.1915 10.0015 30.0015 10.0015 30.0015C10.0015 30.0015 19.1916 29.7644 24.7135 35.2865C29.7609 40.3337 29.9969 48.4454 30 49.803C30.0033 48.4454 30.2393 40.3337 35.2865 35.2865C40.8085 29.7644 49.9985 30.0015 49.9985 30.0015C49.9985 30.0015 50.2357 39.1915 44.7135 44.7135C39.1915 50.2356 30.0015 49.9985 30.0015 49.9985C30.0015 49.9985 30.0002 49.9511 30 49.8613C29.9998 49.9511 29.9985 49.9985 29.9985 49.9985C29.9985 49.9985 20.8085 50.2356 15.2864 44.7135Z" fill="#2F303A"/>
</mask>
<g mask="url(#mask0_4_40)">
<rect x="10" y="10" width="40" height="40" fill="url(#paint1_linear_4_40)"/>
</g>
<defs>
<linearGradient id="paint0_linear_4_40" x1="30" y1="0" x2="30" y2="60" gradientUnits="userSpaceOnUse">
<stop stop-color="#17628A"/>
<stop offset="1" stop-color="#BC3A80"/>
</linearGradient>
<linearGradient id="paint1_linear_4_40" x1="30" y1="10" x2="30" y2="50" gradientUnits="userSpaceOnUse">
<stop stop-color="#17628A"/>
<stop offset="1" stop-color="#BC3A80"/>
</linearGradient>
</defs>
</svg>
