<svg width="56" height="62" viewBox="0 0 56 62" fill="none" xmlns="http://www.w3.org/2000/svg">
<path fill-rule="evenodd" clip-rule="evenodd" d="M55.6484 6.01874L44.7462 17.6039C44.7462 17.6039 42.4071 19.9791 43.7112 21.234C43.7112 21.234 45.544 23.9236 49.4818 21.9738C49.4818 21.9738 52.4194 21.2323 51.5729 27.2723C50.7264 33.3129 43.3157 34.1911 43.3157 34.1911C43.3157 34.1911 39.4477 34.6305 39.6642 40.6324C39.6642 40.6324 40.8554 52.4552 33.1144 57.4735C33.1144 57.4735 23.9304 64.6226 14.703 58.9413C5.475 53.26 2.93866 47.1527 2.93866 47.1527C2.93866 47.1527 0.270809 42.7504 0.00832088 34.9388C-0.254182 27.1271 5.7815 22.1088 5.7815 22.1088C5.7815 22.1088 10.2422 17.5641 17.9828 17.99C17.9828 17.99 23.537 18.8419 24.6304 15.8121C24.6304 15.8121 26.3358 7.10098 31.584 4.82889C31.584 4.82889 36.9632 3.31397 35.7387 8.80532C34.5143 14.2972 37.0507 14.0131 37.0507 14.0131C37.0507 14.0131 37.9251 14.3449 38.8876 13.1612C39.8495 11.9775 51.1328 0 51.1328 0L55.6484 6.01874ZM18.5121 32.9753C18.0848 32.5128 18.0848 31.7628 18.5121 31.3003C18.9394 30.8377 19.6321 30.8377 20.0594 31.3003L26.6025 38.3834C27.0298 38.8459 27.0298 39.5958 26.6025 40.0583C26.1752 40.5209 25.4824 40.5209 25.0551 40.0583L18.5121 32.9753ZM6.73701 28.1688C6.62524 27.6508 6.69824 26.8708 7.51247 26.7325C8.76019 26.5206 8.51116 27.915 8.51116 27.915C8.95278 28.1017 11.4555 26.9477 11.4555 26.9477C14.2252 26.0377 14.9933 24.0143 15.0746 23.7775L15.2329 27.1809C13.6426 26.8956 11.0072 28.1373 9.37162 28.9564C7.7325 29.7774 6.97455 28.6386 6.97455 28.6386C6.97455 28.6386 6.79645 28.4443 6.73701 28.1688ZM15.2405 27.1823C15.236 27.1955 15.234 27.2024 15.234 27.2024L15.2329 27.1809L15.2405 27.1823ZM15.2415 27.1797L15.2416 27.1825L15.2405 27.1823L15.2415 27.1797ZM15.0831 23.7762C16.6735 24.0616 19.3088 22.8198 20.9445 22.0008C22.5836 21.1798 23.3416 22.3186 23.3416 22.3186C23.3416 22.3186 23.5197 22.5129 23.579 22.7883C23.6908 23.3064 23.6179 24.0864 22.8036 24.2247C21.5559 24.4366 21.8049 23.0422 21.8049 23.0422C21.3633 22.8555 18.8606 24.0095 18.8606 24.0095C16.0909 24.9195 15.3228 26.9429 15.2415 27.1797L15.0831 23.7762ZM15.0755 23.7748C15.08 23.7617 15.0822 23.7548 15.0822 23.7548L15.0831 23.7762L15.0755 23.7748ZM15.0755 23.7748L15.0745 23.7747L15.0746 23.7775L15.0755 23.7748ZM23.5597 27.3962C23.5597 27.3962 31.3402 35.6415 33.5302 38.5396C33.5302 38.5396 34.2778 39.4111 33.7862 40.4051C32.7746 43.0682 31.0073 43.7392 30.7919 43.8209C30.9719 45.5551 29.6885 48.3391 28.8473 50.0644C28.0041 51.7934 29.015 52.6724 29.015 52.6724C29.015 52.6724 29.1849 52.875 29.4359 52.9537C29.908 53.1016 30.6314 53.0636 30.8015 52.1906C31.0623 50.8529 29.7629 51.0491 29.7629 51.0491C29.6139 50.5619 30.8094 47.9167 30.8094 47.9167C31.7938 44.9702 33.7006 44.2458 33.9249 44.1611C33.8246 43.195 34.1785 41.903 34.6572 40.6498C34.7178 40.3454 35.2565 40.2625 35.716 40.3454C35.716 40.3454 36.5211 40.657 37.4991 39.2559C37.4991 39.2559 39.0233 37.2007 39.7139 31.4403C39.7139 31.4403 39.6849 28.9811 42.0437 26.677C42.0437 26.677 44.4594 24.4038 42.6474 22.38L35.4245 14.5735L31.7083 18.5828L37.1827 24.591L32.8685 29.2921L27.3441 23.3189L23.5597 27.3962ZM24.7053 27.2753L27.268 24.5011L33.2162 30.9402L30.6535 33.7144L24.7053 27.2753ZM35.3433 15.7289L32.7807 18.503L38.7289 24.9421L41.2915 22.168L35.3433 15.7289Z" fill="white" fill-opacity="0.5"/>
</svg>
