<svg width="661" height="92" viewBox="0 0 661 92" fill="none" xmlns="http://www.w3.org/2000/svg">
<path d="M43.5648 26.82V69.84C43.5648 76.5 41.6748 81.63 37.8948 85.23C34.1748 88.83 29.1348 90.63 22.7748 90.63C16.1148 90.63 10.7748 88.74 6.75477 84.96C2.73477 81.18 0.724766 75.81 0.724766 68.85H16.0248C16.0248 71.49 16.5648 73.5 17.6448 74.88C18.7248 76.2 20.2848 76.86 22.3248 76.86C24.1848 76.86 25.6248 76.26 26.6448 75.06C27.6648 73.86 28.1748 72.12 28.1748 69.84V26.82H43.5648ZM78.856 90.72C73.936 90.72 69.496 89.67 65.536 87.57C61.636 85.47 58.546 82.47 56.266 78.57C54.046 74.67 52.936 70.11 52.936 64.89C52.936 59.73 54.076 55.2 56.356 51.3C58.636 47.34 61.756 44.31 65.716 42.21C69.676 40.11 74.116 39.06 79.036 39.06C83.956 39.06 88.396 40.11 92.356 42.21C96.316 44.31 99.436 47.34 101.716 51.3C103.996 55.2 105.136 59.73 105.136 64.89C105.136 70.05 103.966 74.61 101.626 78.57C99.346 82.47 96.196 85.47 92.176 87.57C88.216 89.67 83.776 90.72 78.856 90.72ZM78.856 77.4C81.796 77.4 84.286 76.32 86.326 74.16C88.426 72 89.476 68.91 89.476 64.89C89.476 60.87 88.456 57.78 86.416 55.62C84.436 53.46 81.976 52.38 79.036 52.38C76.036 52.38 73.546 53.46 71.566 55.62C69.586 57.72 68.596 60.81 68.596 64.89C68.596 68.91 69.556 72 71.476 74.16C73.456 76.32 75.916 77.4 78.856 77.4ZM121.041 34.56C118.341 34.56 116.121 33.78 114.381 32.22C112.701 30.6 111.861 28.62 111.861 26.28C111.861 23.88 112.701 21.9 114.381 20.34C116.121 18.72 118.341 17.91 121.041 17.91C123.681 17.91 125.841 18.72 127.521 20.34C129.261 21.9 130.131 23.88 130.131 26.28C130.131 28.62 129.261 30.6 127.521 32.22C125.841 33.78 123.681 34.56 121.041 34.56ZM128.691 39.78V90H113.301V39.78H128.691ZM170.444 39.24C176.324 39.24 181.004 41.16 184.484 45C188.024 48.78 189.794 54 189.794 60.66V90H174.494V62.73C174.494 59.37 173.624 56.76 171.884 54.9C170.144 53.04 167.804 52.11 164.864 52.11C161.924 52.11 159.584 53.04 157.844 54.9C156.104 56.76 155.234 59.37 155.234 62.73V90H139.844V39.78H155.234V46.44C156.794 44.22 158.894 42.48 161.534 41.22C164.174 39.9 167.144 39.24 170.444 39.24ZM247.55 76.95V90H239.72C234.14 90 229.79 88.65 226.67 85.95C223.55 83.19 221.99 78.72 221.99 72.54V52.56H215.87V39.78H221.99V27.54H237.38V39.78H247.46V52.56H237.38V72.72C237.38 74.22 237.74 75.3 238.46 75.96C239.18 76.62 240.38 76.95 242.06 76.95H247.55ZM286.993 39.24C292.753 39.24 297.373 41.16 300.853 45C304.333 48.78 306.073 54 306.073 60.66V90H290.773V62.73C290.773 59.37 289.903 56.76 288.163 54.9C286.423 53.04 284.083 52.11 281.143 52.11C278.203 52.11 275.863 53.04 274.123 54.9C272.383 56.76 271.513 59.37 271.513 62.73V90H256.123V23.4H271.513V46.53C273.073 44.31 275.203 42.54 277.903 41.22C280.603 39.9 283.633 39.24 286.993 39.24ZM364.107 64.08C364.107 65.52 364.018 67.02 363.838 68.58H329.008C329.248 71.7 330.238 74.1 331.978 75.78C333.778 77.4 335.968 78.21 338.548 78.21C342.388 78.21 345.058 76.59 346.558 73.35H362.938C362.098 76.65 360.568 79.62 358.348 82.26C356.188 84.9 353.458 86.97 350.158 88.47C346.858 89.97 343.168 90.72 339.088 90.72C334.168 90.72 329.788 89.67 325.948 87.57C322.108 85.47 319.108 82.47 316.948 78.57C314.788 74.67 313.708 70.11 313.708 64.89C313.708 59.67 314.758 55.11 316.858 51.21C319.018 47.31 322.018 44.31 325.858 42.21C329.698 40.11 334.108 39.06 339.088 39.06C343.948 39.06 348.268 40.08 352.048 42.12C355.828 44.16 358.768 47.07 360.868 50.85C363.028 54.63 364.107 59.04 364.107 64.08ZM348.358 60.03C348.358 57.39 347.458 55.29 345.658 53.73C343.858 52.17 341.608 51.39 338.908 51.39C336.328 51.39 334.138 52.14 332.338 53.64C330.598 55.14 329.518 57.27 329.098 60.03H348.358Z" fill="white"/>
<path d="M453.422 0.143997V17.68H416.814V36.624H444.206V53.648H416.814V90H394.926V0.143997H453.422ZM535.454 18.576V90H513.566V80.272C511.348 83.4293 508.318 85.9893 504.478 87.952C500.724 89.8293 496.542 90.768 491.934 90.768C486.473 90.768 481.652 89.5733 477.47 87.184C473.289 84.7093 470.046 81.168 467.742 76.56C465.438 71.952 464.286 66.5333 464.286 60.304V18.576H486.046V57.36C486.046 62.1387 487.284 65.8507 489.758 68.496C492.233 71.1413 495.561 72.464 499.742 72.464C504.009 72.464 507.38 71.1413 509.854 68.496C512.329 65.8507 513.566 62.1387 513.566 57.36V18.576H535.454ZM594.696 17.808C603.059 17.808 609.715 20.5387 614.664 26C619.699 31.376 622.216 38.8 622.216 48.272V90H600.456V51.216C600.456 46.4373 599.219 42.7253 596.744 40.08C594.27 37.4347 590.942 36.112 586.76 36.112C582.579 36.112 579.251 37.4347 576.776 40.08C574.302 42.7253 573.064 46.4373 573.064 51.216V90H551.176V18.576H573.064V28.048C575.283 24.8907 578.27 22.416 582.024 20.624C585.779 18.7467 590.003 17.808 594.696 17.808ZM647.666 91.024C643.826 91.024 640.669 89.9147 638.194 87.696C635.805 85.392 634.61 82.576 634.61 79.248C634.61 75.8347 635.805 72.976 638.194 70.672C640.669 68.368 643.826 67.216 647.666 67.216C651.421 67.216 654.493 68.368 656.882 70.672C659.357 72.976 660.594 75.8347 660.594 79.248C660.594 82.576 659.357 85.392 656.882 87.696C654.493 89.9147 651.421 91.024 647.666 91.024Z" fill="url(#paint0_linear_8_135)"/>
<defs>
<linearGradient id="paint0_linear_8_135" x1="332" y1="-65" x2="332" y2="156" gradientUnits="userSpaceOnUse">
<stop stop-color="#BC3A80"/>
<stop offset="1" stop-color="#17628A"/>
</linearGradient>
</defs>
</svg>
