<svg width="33" height="31" viewBox="0 0 33 31" fill="none" xmlns="http://www.w3.org/2000/svg">
<path d="M11.0013 15.5C11.0013 12.6466 13.4631 10.3329 16.5007 10.3329C19.5382 10.3329 22.0013 12.6466 22.0013 15.5C22.0013 18.3534 19.5382 20.6671 16.5007 20.6671C13.4631 20.6671 11.0013 18.3534 11.0013 15.5ZM8.02777 15.5C8.02777 19.8958 11.8211 23.4591 16.5007 23.4591C21.1802 23.4591 24.9736 19.8958 24.9736 15.5C24.9736 11.1042 21.1802 7.54094 16.5007 7.54094C11.8211 7.54094 8.02777 11.1042 8.02777 15.5ZM23.3289 7.22536C23.3285 8.25261 24.2146 9.08569 25.3082 9.0861C26.4018 9.08651 27.2886 8.25409 27.2891 7.22684C27.2895 6.19959 26.4033 5.36651 25.3098 5.3661H25.309C24.2159 5.36658 23.3298 6.1986 23.3289 7.22536ZM9.83439 28.1166C8.22565 28.0478 7.35124 27.7961 6.77015 27.5834C5.99977 27.3017 5.4501 26.9662 4.87218 26.424C4.29426 25.8819 3.93653 25.3661 3.63793 24.6424C3.41141 24.0968 3.14344 23.2752 3.07031 21.764C2.99032 20.1302 2.97434 19.6394 2.97434 15.5001C2.97434 11.3609 2.99164 10.8715 3.07031 9.23626C3.14357 7.72508 3.41352 6.90506 3.63793 6.35785C3.93785 5.63419 4.29506 5.11785 4.87218 4.57498C5.44931 4.03211 5.99845 3.69607 6.77015 3.41558C7.35098 3.2028 8.22565 2.95108 9.83439 2.88238C11.5737 2.80724 12.0962 2.79223 16.5007 2.79223C20.9051 2.79223 21.4282 2.80848 23.1689 2.88238C24.7777 2.9512 25.6506 3.20478 26.2331 3.41558C27.0035 3.69607 27.5532 4.03285 28.1311 4.57498C28.709 5.11711 29.0655 5.63419 29.3654 6.35785C29.5919 6.90345 29.8599 7.72508 29.933 9.23626C30.013 10.8715 30.029 11.3609 30.029 15.5001C30.029 19.6394 30.013 20.1288 29.933 21.764C29.8597 23.2752 29.5904 24.0965 29.3654 24.6424C29.0655 25.3661 28.7082 25.8824 28.1311 26.424C27.554 26.9657 27.0035 27.3017 26.2331 27.5834C25.6523 27.7962 24.7777 28.0479 23.1689 28.1166C21.4296 28.1918 20.9071 28.2068 16.5007 28.2068C12.0942 28.2068 11.5732 28.1918 9.83439 28.1166ZM9.69777 0.093868C7.94117 0.169012 6.74085 0.430652 5.6926 0.813812C4.60698 1.2095 3.68796 1.74034 2.7696 2.60164C1.85124 3.46295 1.28758 4.3276 0.866351 5.34738C0.458454 6.33268 0.179923 7.45959 0.099928 9.10966C0.0186127 10.7623 0 11.2907 0 15.5C0 19.7093 0.0186127 20.2377 0.099928 21.8903C0.179923 23.5405 0.458454 24.6673 0.866351 25.6526C1.28758 26.6718 1.85137 27.5374 2.7696 28.3984C3.68783 29.2593 4.60698 29.7894 5.6926 30.1862C6.74283 30.5693 7.94117 30.831 9.69777 30.9061C11.4581 30.9813 12.0196 31 16.5007 31C20.9817 31 21.5442 30.9825 23.3036 30.9061C25.0603 30.831 26.2598 30.5693 27.3087 30.1862C28.3937 29.7894 29.3134 29.2597 30.2317 28.3984C31.1501 27.5371 31.7126 26.6718 32.135 25.6526C32.5429 24.6673 32.8227 23.5404 32.9014 21.8903C32.9814 20.2364 33 19.7093 33 15.5C33 11.2907 32.9814 10.7623 32.9014 9.10966C32.8214 7.45947 32.5429 6.33206 32.135 5.34738C31.7126 4.32822 31.1486 3.46431 30.2317 2.60164C29.3148 1.73898 28.3937 1.2095 27.31 0.813812C26.2598 0.430652 25.0601 0.167772 23.3049 0.093868C21.5455 0.018724 20.983 0 16.502 0C12.0209 0 11.4581 0.017484 9.69777 0.093868Z" fill="white"/>
</svg>
