<svg width="40" height="31" viewBox="0 0 40 31" fill="none" xmlns="http://www.w3.org/2000/svg">
<path d="M40 3.66756C38.5287 4.29015 36.9485 4.71104 35.287 4.90022C36.9827 3.93189 38.2817 2.39744 38.8951 0.571179C37.2843 1.48353 35.5214 2.12582 33.6831 2.47016C32.187 0.949439 30.0536 0 27.6934 0C23.1631 0 19.489 3.50232 19.489 7.8251C19.489 8.43759 19.5613 9.03513 19.7004 9.60883C12.8805 9.28198 6.83433 6.16671 2.78728 1.43305C2.08061 2.58914 1.67612 3.9333 1.67612 5.36746C1.67612 8.08195 3.12494 10.477 5.32641 11.8799C4.02318 11.8414 2.74855 11.5059 1.60907 10.9016V11.0005C1.60907 14.7922 4.43714 17.9538 8.19122 18.6728C7.5016 18.853 6.77788 18.9472 6.02916 18.9472C5.49979 18.9472 4.9862 18.8994 4.48448 18.8094C5.52871 21.9172 8.55917 24.1794 12.1489 24.2433C9.34052 26.3427 5.80186 27.5941 1.95849 27.5941C1.29652 27.5941 0.642274 27.5565 0 27.4826C3.63196 29.7035 7.94433 31 12.5785 31C27.6711 31 35.9253 19.0763 35.9253 8.73585C35.9253 8.39638 35.9175 8.05943 35.9003 7.72369C37.5085 6.61442 38.8967 5.24094 40 3.66756Z" fill="white"/>
</svg>
