<svg width="70" height="68" viewBox="0 0 70 68" fill="none" xmlns="http://www.w3.org/2000/svg">
<path fill-rule="evenodd" clip-rule="evenodd" d="M26.209 25.387L35.2371 0L44.1446 25.4307H70L49.3886 40.7897L58.3724 67.852L34.8026 51.4592L11.959 68L20.7099 40.7897L0 25.4268L26.209 25.387ZM26.9685 31.799C26.9685 30.8853 27.7098 30.1445 28.6205 30.1445H39.4756C40.388 30.1445 41.1276 30.8851 41.1276 31.799V40.5479C41.1276 41.4616 40.3862 42.2023 39.4756 42.2023H28.6205C27.7081 42.2023 26.9685 41.4617 26.9685 40.5479V31.799ZM41.7415 34.4244L45.6038 31.5205V41.14L41.7415 37.9108V34.4244ZM25.2206 32.198H26.1619V35.4203H25.2206C24.7008 35.4203 24.2793 35.1113 24.2793 34.729V32.8893C24.2793 32.5075 24.6971 32.198 25.2206 32.198Z" fill="white" fill-opacity="0.5"/>
</svg>
